#!OML:ASF I:\Actors\actors\Patient Classification 2\Patient 1\Session 1\actor1.ASF
:FULLY-SPECIFIED
:DEGREES
537
root -0.655415 18.5516 7.18089 0.425056 2.73732 -6.80432
lowerback 5.32916 1.49818 8.81389
upperback -6.07724 2.66568 -2.71612
thorax -9.00732 0.601911 -8.24856
lowerneck -9.80419 13.9791 18.1293
upperneck 14.4947 17.0185 -5.02185
head 8.07651 8.75017 -2.48143
rclavicle 2.48481e-014 -1.11319e-014
rhumerus -38.1844 7.87393 -96.8308
rradius 120.573
rwrist 18.8331
rhand 14.0442 -50.7091
rfingers 7.12502
rthumb 38.9512 -436.243
lclavicle 2.48481e-014 -1.11319e-014
lhumerus -27.218 -22.518 93.5821
lradius 121.447
lwrist -20.3136
lhand 44.5803 -0.215703
lfingers 7.12502
lthumb 66.0654 5.08131
rfemur 13.28 -2.83939 20.4252
rtibia 3.18055e-015
rfoot -18.8914 -10.1572
rtoes -13.9775
lfemur -3.67934 -6.91339 -7.76544
ltibia 27.9568
lfoot -24.9292 8.8381
ltoes -58.0125
538
root -0.654365 18.5501 7.18729 0.405196 2.64539 -6.73374
lowerback 5.2629 1.50979 8.70204
upperback -6.05521 2.66476 -2.6996
thorax -8.9464 0.614411 -8.16098
lowerneck -10.1218 13.7082 17.7372
upperneck 14.9098 16.5907 -4.61389
head 8.15132 8.56371 -2.3371
rclavicle -9.14409e-015 -1.43125e-014
rhumerus -38.2608 7.88818 -96.8152
rradius 120.629
rwrist 18.6887
rhand 14.3008 -50.7554
rfingers 7.12502
rthumb 39.1931 -436.22
lclavicle -9.14409e-015 -1.43125e-014
lhumerus -27.2385 -22.42 93.6819
lradius 121.426
lwrist -20.3716
lhand 44.6512 -0.370887
lfingers 7.12502
lthumb 66.1199 4.82383
rfemur 13.3179 -2.74418 20.3423
rtibia -4.77083e-015
rfoot -18.9208 -10.161
rtoes -13.8828
lfemur -3.5794 -6.92884 -7.87698
ltibia 27.9291
lfoot -24.9665 8.89
ltoes -58.0093
539
root -0.656155 18.5489 7.19485 0.375583 2.51954 -6.78544
lowerback 5.21627 1.5368 8.6801
upperback -6.06098 2.69802 -2.66056
thorax -8.92012 0.635256 -8.10639
lowerneck -10.6789 13.136 17.0115
upperneck 15.4838 15.7105 -3.91082
head 8.22353 8.17109 -2.10495
rclavicle -4.96962e-015 -3.18055e-015
rhumerus -38.317 7.82328 -96.8629
rradius 120.702
rwrist 18.7513
rhand 14.4905 -51.0553
rfingers 7.12502
rthumb 39.3718 -436.468
lclavicle -4.96962e-015 -3.18055e-015
lhumerus -27.3303 -22.4126 93.7495
lradius 121.427
lwrist -20.3717
lhand 44.7732 -0.292524
lfingers 7.12502
lthumb 66.2135 4.72502
rfemur 13.3591 -2.61905 20.413
rtibia 2.70347e-014
rfoot -18.9687 -10.1727
rtoes -13.8506
lfemur -3.45638 -6.89242 -7.82988
ltibia 27.8668
lfoot -24.9726 8.9664
ltoes -58.0525
540
root -0.669725 18.5503 7.20709 0.416239 2.33186 -6.78732
lowerback 5.03929 1.59904 8.43398
upperback -6.08509 2.74649 -2.61947
thorax -8.8389 0.681663 -7.91557
lowerneck -11.4537 12.0971 15.7977
upperneck 16.105 14.1849 -2.91051
head 8.23912 7.47334 -1.79034
rclavicle 3.22031e-014 0
rhumerus -38.3079 7.61912 -97.0111
rradius 120.948
rwrist 18.8815
rhand 14.7265 -51.5198
rfingers 7.12502
rthumb 39.5942 -436.867
lclavicle 3.22031e-014 0
lhumerus -27.3996 -22.4363 93.7752
lradius 121.427
lwrist -20.3324
lhand 44.7975 -0.153697
lfingers 7.12502
lthumb 66.2321 4.82843
rfemur 13.3279 -2.43918 20.484
rtibia -3.33958e-014
rfoot -18.9878 -10.1926
rtoes -13.8637
lfemur -3.40469 -6.77191 -7.77872
ltibia 27.8122
lfoot -24.9469 9.02336
ltoes -58.0489
541
root -0.67791 18.553 7.21469 0.493445 2.20079 -6.56936
lowerback 4.87726 1.64816 8.06114
upperback -6.1256 2.76089 -2.67329
thorax -8.79144 0.713322 -7.75451
lowerneck -12.404 10.445 13.9938
upperneck 16.6196 11.874 -1.71091
head 8.16549 6.38648 -1.42005
rclavicle -4.4329e-014 -1.11319e-014
rhumerus -38.2969 8.00031 -96.8915
rradius 120.616
rwrist 18.6936
rhand 14.4231 -51.6773
rfingers 7.12502
rthumb 39.3084 -437.108
lclavicle -4.4329e-014 -1.11319e-014
lhumerus -27.4383 -22.4399 93.8012
lradius 121.377
lwrist -20.3409
lhand 44.6697 -0.254347
lfingers 7.12502
lthumb 66.1341 4.91366
rfemur 13.2604 -2.30866 20.2788
rtibia 1.59028e-014
rfoot -18.9893 -10.2153
rtoes -13.8464
lfemur -3.41003 -6.70028 -8.0051
ltibia 27.7822
lfoot -24.9355 9.0623
ltoes -58.0241
542
root -0.662069 18.553 7.20945 0.434624 2.22868 -6.58563
lowerback 4.9832 1.59923 8.32507
upperback -6.14373 2.72388 -2.7434
thorax -8.8731 0.668839 -7.98646
lowerneck -13.3094 8.27385 11.6403
upperneck 16.9272 8.96569 -0.318528
head 8.0072 4.99689 -0.962713
rclavicle 2.72335e-014 -2.22639e-014
rhumerus -38.8404 7.93055 -97.0431
rradius 120.707
rwrist 18.8523
rhand 14.2849 -51.3699
rfingers 7.12502
rthumb 39.1781 -436.839
lclavicle 2.72335e-014 -2.22639e-014
lhumerus -27.47 -22.4154 93.8044
lradius 121.289
lwrist -20.3689
lhand 44.5067 -0.503374
lfingers 7.12502
lthumb 66.0087 4.8993
rfemur 13.3167 -2.32492 20.2308
rtibia -3.49861e-014
rfoot -18.9376 -10.2908
rtoes -14.2742
lfemur -3.32821 -6.72223 -8.05691
ltibia 27.7652
lfoot -24.932 9.03228
ltoes -58.0208
543
root -0.648721 18.5539 7.20557 0.398558 2.23721 -6.71125
lowerback 5.03802 1.54554 8.65096
upperback -6.16355 2.68503 -2.78203
thorax -8.92735 0.621833 -8.21677
lowerneck -13.7161 5.87021 9.24522
upperneck 16.9367 5.86561 1.01602
head 7.76561 3.49931 -0.523779
rclavicle -2.60408e-014 -7.95139e-015
rhumerus -39.1785 7.8725 -97.2041
rradius 120.727
rwrist 19.2118
rhand 14.2247 -51.203
rfingers 7.12502
rthumb 39.1214 -436.688
lclavicle -2.60408e-014 -7.95139e-015
lhumerus -27.5247 -22.3608 93.7586
lradius 121.287
lwrist -20.2785
lhand 44.4252 -0.611695
lfingers 7.12502
lthumb 65.9459 4.90735
rfemur 13.3442 -2.32533 20.3224
rtibia -2.22639e-014
rfoot -18.8751 -10.3756
rtoes -14.7394
lfemur -3.28674 -6.70852 -7.9638
ltibia 27.7646
lfoot -24.8899 9.0275
ltoes -57.9923
544
root -0.647496 18.556 7.20774 0.444619 2.20327 -6.69363
lowerback 4.93944 1.51837 8.58155
upperback -6.19223 2.63333 -2.79095
thorax -8.91265 0.600776 -8.1769
lowerneck -13.6372 3.51503 7.17325
upperneck 16.7214 2.91224 1.95932
head 7.4995 2.04149 -0.223188
rclavicle 9.93923e-016 1.74931e-014
rhumerus -39.1623 8.00668 -97.2075
rradius 120.612
rwrist 19.3165
rhand 14.1765 -51.3962
rfingers 7.12502
rthumb 39.0759 -436.894
lclavicle 9.93923e-016 1.74931e-014
lhumerus -27.6136 -22.2039 93.7841
lradius 121.446
lwrist -20.0801
lhand 44.464 -0.460971
lfingers 7.12502
lthumb 65.9758 5.00272
rfemur 13.2955 -2.28903 20.3071
rtibia 3.18055e-015
rfoot -18.8377 -10.4211
rtoes -14.9357
lfemur -3.33556 -6.66106 -7.98119
ltibia 27.791
lfoot -24.8727 9.02944
ltoes -57.9374
545
root -0.646639 18.5563 7.2091 0.446922 2.17497 -6.68353
lowerback 4.88153 1.46761 8.46188
upperback -6.19834 2.55226 -2.74446
thorax -8.90577 0.571275 -8.0452
lowerneck -13.3724 1.41506 5.28975
upperneck 16.4974 0.32039 2.7083
head 7.29696 0.74247 0.048543
rclavicle -2.00773e-014 4.77083e-015
rhumerus -39.0924 8.18958 -97.1735
rradius 120.588
rwrist 19.1254
rhand 14.0814 -51.2633
rfingers 7.12502
rthumb 38.9863 -436.787
lclavicle -2.00773e-014 4.77083e-015
lhumerus -27.7415 -21.9598 93.8731
lradius 121.63
lwrist -19.9204
lhand 44.4093 -0.356254
lfingers 7.12502
lthumb 65.9336 5.18549
rfemur 13.2938 -2.25823 20.2955
rtibia 7.15625e-014
rfoot -18.805 -10.4444
rtoes -15.0159
lfemur -3.33241 -6.63681 -7.99909
ltibia 27.8062
lfoot -24.9008 9.02794
ltoes -57.9032
546
root -0.645387 18.5558 7.20908 0.423693 2.13358 -6.68525
lowerback 4.87782 1.41428 8.36279
upperback -6.21219 2.47508 -2.6924
thorax -8.9383 0.539829 -7.92301
lowerneck -12.9252 -0.386011 3.55007
upperneck 16.2769 -1.89823 3.49804
head 7.13629 -0.370461 0.364732
rclavicle -3.08116e-014 1.59028e-015
rhumerus -39.049 8.32983 -97.1733
rradius 120.611
rwrist 18.9859
rhand 14.0942 -50.9699
rfingers 7.12502
rthumb 38.9984 -436.49
lclavicle -3.08116e-014 1.59028e-015
lhumerus -27.9141 -21.7567 93.9612
lradius 121.755
lwrist -19.8996
lhand 44.4005 -0.384735
lfingers 7.12502
lthumb 65.9268 5.1695
rfemur 13.3189 -2.21379 20.2906
rtibia -3.18055e-015
rfoot -18.8444 -10.4209
rtoes -14.6112
lfemur -3.2728 -6.63905 -8.01644
ltibia 27.776
lfoot -24.9381 9.0643
ltoes -57.9074
547
root -0.644401 18.5555 7.20817 0.410994 2.09784 -6.67244
lowerback 4.87136 1.36476 8.22783
upperback -6.22697 2.40014 -2.6322
thorax -8.97024 0.512373 -7.77137
lowerneck -12.4378 -1.9441 1.84864
upperneck 16.0882 -3.83007 4.40646
head 7.03769 -1.33524 0.750761
rclavicle 3.57812e-014 -4.77083e-015
rhumerus -38.8318 8.59443 -97.0833
rradius 120.577
rwrist 18.8531
rhand 14.1864 -50.9784
rfingers 7.12502
rthumb 39.0853 -436.474
lclavicle 3.57812e-014 -4.77083e-015
lhumerus -28.0604 -21.619 94.055
lradius 121.841
lwrist -19.9772
lhand 44.5208 -0.353192
lfingers 7.12502
lthumb 66.0195 5.02935
rfemur 13.3266 -2.17566 20.2758
rtibia -5.08889e-014
rfoot -18.872 -10.433
rtoes -14.4469
lfemur -3.21328 -6.63738 -8.04469
ltibia 27.704
lfoot -24.94 9.10145
ltoes -57.956
548
root -0.657843 18.5571 7.21362 0.474987 1.96435 -6.586
lowerback 4.70522 1.3712 7.75728
upperback -6.22974 2.35991 -2.5217
thorax -8.89381 0.533778 -7.36705
lowerneck -11.9765 -3.25898 0.174414
upperneck 15.9219 -5.46164 5.3539
head 6.99722 -2.15157 1.1767
rclavicle -1.94809e-014 -1.90833e-014
rhumerus -38.4267 9.00328 -96.8835
rradius 120.485
rwrist 18.643
rhand 14.1773 -51.259
rfingers 7.12502
rthumb 39.0767 -436.757
lclavicle -1.94809e-014 -1.90833e-014
lhumerus -28.1144 -21.5273 94.1602
lradius 121.821
lwrist -20.1264
lhand 44.5254 -0.390174
lfingers 7.12502
lthumb 66.0231 4.98566
rfemur 13.2576 -2.04851 20.2454
rtibia 3.65764e-014
rfoot -18.8624 -10.4645
rtoes -14.5814
lfemur -3.2018 -6.5603 -8.09287
ltibia 27.6053
lfoot -24.8991 9.16221
ltoes -57.9712
549
root -0.686126 18.5606 7.22496 0.615269 1.68899 -6.43787
lowerback 4.4195 1.45094 6.99739
upperback -6.23933 2.38697 -2.39459
thorax -8.7482 0.611327 -6.78208
lowerneck -11.5373 -4.35267 -1.12871
upperneck 15.7929 -6.83083 6.03123
head 6.98515 -2.84278 1.47986
rclavicle -6.95746e-015 1.11319e-014
rhumerus -38.1505 9.20828 -96.6788
rradius 120.376
rwrist 18.4778
rhand 14.1491 -51.5225
rfingers 7.12502
rthumb 39.0501 -437.028
lclavicle -6.95746e-015 1.11319e-014
lhumerus -28.1075 -21.4928 94.2983
lradius 121.711
lwrist -20.3492
lhand 44.4693 -0.550494
lfingers 7.12502
lthumb 65.9799 4.90566
rfemur 13.1037 -1.78743 20.2046
rtibia -2.38542e-014
rfoot -18.9227 -10.4268
rtoes -14.1618
lfemur -3.232 -6.39101 -8.15438
ltibia 27.5011
lfoot -24.8649 9.2499
ltoes -57.9516
550
root -0.701212 18.5619 7.22954 0.712323 1.4964 -6.3564
lowerback 4.24376 1.48551 6.51761
upperback -6.23854 2.38604 -2.3051
thorax -8.65622 0.651202 -6.40228
lowerneck -11.1889 -5.27121 -2.07679
upperneck 15.7482 -8.01627 6.55794
head 7.01597 -3.43387 1.69126
rclavicle -1.80894e-014 -3.02153e-014
rhumerus -37.9483 9.26733 -96.4853
rradius 120.248
rwrist 18.3698
rhand 14.2205 -51.7445
rfingers 7.12502
rthumb 39.1174 -437.231
lclavicle -1.80894e-014 -3.02153e-014
lhumerus -28.0423 -21.4555 94.443
lradius 121.627
lwrist -20.5668
lhand 44.5303 -0.60346
lfingers 7.12502
lthumb 66.0269 4.76533
rfemur 12.9862 -1.60134 20.1796
rtibia 5.08889e-014
rfoot -18.9923 -10.3941
rtoes -13.8378
lfemur -3.24303 -6.24107 -8.1881
ltibia 27.4047
lfoot -24.8408 9.30772
ltoes -57.9915
